<svg xmlns="http://www.w3.org/2000/svg" viewBox="0 0 256 256" width="64" height="64" role="img" aria-label="TypeScript logo">
  <rect width="256" height="256" fill="#3178C6" rx="28"/>
  <path fill="#fff" d="M77 74h25v95h17V74h25V59H77v15zM184.3 135.7c0 25.6-17.8 37.8-43.8 37.8-12.9 0-22-2.6-28.6-6.7l6.6-14.9c5.4 3.6 11.6 6 22.3 6 13.1 0 21.5-5.2 21.5-18.9 0-12.3-8.7-16.9-24.3-16.9h-9.9v-14.7h10.6c13.9 0 20.9-4.5 20.9-13.3 0-8.7-7.5-12.1-18.6-12.1-7.3 0-13.1 1.9-18.7 4.9l-6.4-12.7c7.8-4.5 17.9-6.9 29.9-6.9 30.7 0 44.6 14.3 44.6 40.7 0 22.9-10.9 33.3-26.6 38.6 15.9 3.8 24.1 14.3 24.1 31.5z"/>
</svg>
